# xmcd CD database file
#
# Track frame offsets:
#	150
#	23920
#	26747
#	44200
#	57590
#	58782
#	85337
#	90885
#	94000
#	166745
#	196315
#	213312
#	227667
#	237967
#	249412
#	262932
#
# Disc length: 4117 seconds
#
# Revision: 0
# Processed by: cddbd v1.4PL0 Copyright (c) Steve Scherf et al.
# Submitted via: Feurio! 1.64 - http://www.feurio.com
#
DISCID=d1101310
DTITLE=The Doors - The Future Is Murder
DYEAR=1900
DGENRE=Blues
TTITLE0=Crawling King Jake
TTITLE1=Lament Of An Indian
TTITLE2=Peace Frog
TTITLE3=Money
TTITLE4=The Chant Movement
TTITLE5=A Train Arrives
TTITLE6=Horse Latitudes - Hitler
TTITLE7=Orange Country Suite
TTITLE8=Rock Is Dead - A Train arrives
TTITLE9=Rock me Baby
TTITLE10=Someday Soon
TTITLE11=Touch Me
TTITLE12=Do It
TTITLE13=Wild Child
TTITLE14=Wishful Sinful
TTITLE15=The Soft Parade
EXTD=
EXTT0=
EXTT1=
EXTT2=
EXTT3=
EXTT4=
EXTT5=
EXTT6=
EXTT7=
EXTT8=
EXTT9=
EXTT10=
EXTT11=
EXTT12=
EXTT13=
EXTT14=
EXTT15=
PLAYORDER=
